<svg width="154" height="148" viewBox="0 0 154 148" fill="none" xmlns="http://www.w3.org/2000/svg">
<path d="M0.999985 147.17C0.999985 139.82 4.50815 132.599 11.1719 126.234C17.8357 119.868 27.4202 114.582 38.9621 110.907C50.5041 107.232 63.5968 105.297 76.9243 105.297C90.2518 105.297 103.345 107.232 114.887 110.907C126.428 114.582 136.013 119.868 142.677 126.234C149.341 132.599 152.849 139.82 152.849 147.17" fill="#C7EF00"/>
<path d="M0.999979 147.17C0.99998 139.82 4.50815 132.599 11.1719 126.234C17.8357 119.868 27.4202 114.582 38.9621 110.907C50.5041 107.232 63.5968 105.297 76.9243 105.297C90.2518 105.297 103.345 107.232 114.887 110.907C126.428 114.582 136.013 119.868 142.677 126.234C149.341 132.599 152.849 139.82 152.849 147.17" stroke="#36413E" stroke-width="1.43577" stroke-linecap="round" stroke-linejoin="round"/>
<path d="M72.9826 139.947L62.6847 128.897L57.574 114.684L72.292 111.291L87.1564 113.971L82.7363 128.414L72.9826 139.947Z" fill="#FA7E61" stroke="#36413E" stroke-width="1.55152" stroke-linecap="round" stroke-linejoin="round"/>
<path d="M115.117 2L94.3995 25.4258L115.117 2Z" fill="#36413E"/>
<path d="M115.117 2L94.3995 25.4258" stroke="#FA7E61" stroke-width="2.09362" stroke-linecap="round"/>
<path d="M29.6793 2.43591L50.1489 25.6135L29.6793 2.43591Z" fill="#36413E"/>
<path d="M29.6793 2.43591L50.1489 25.6135" stroke="#FA7E61" stroke-width="2.23584" stroke-linecap="round"/>
<path d="M72.5713 76.8703C89.7705 76.8703 103.713 62.9276 103.713 45.7283C103.713 28.5291 89.7705 14.5863 72.5713 14.5863C55.372 14.5863 41.4293 28.5291 41.4293 45.7283C41.4293 62.9276 55.372 76.8703 72.5713 76.8703Z" fill="#C7EF00" stroke="#36413E" stroke-width="1.55152"/>
<path d="M48.5324 67.1813C58.2537 67.1813 66.1344 59.3006 66.1344 49.5793C66.1344 39.858 58.2537 31.9773 48.5324 31.9773C38.8111 31.9773 30.9304 39.858 30.9304 49.5793C30.9304 59.3006 38.8111 67.1813 48.5324 67.1813Z" fill="#7B9E89" stroke="#36413E" stroke-width="1.55152"/>
<path d="M48.5333 61.741C55.2635 61.741 60.7193 56.2852 60.7193 49.555C60.7193 42.8249 55.2635 37.369 48.5333 37.369C41.8032 37.369 36.3473 42.8249 36.3473 49.555C36.3473 56.2852 41.8032 61.741 48.5333 61.741Z" stroke="#36413E" stroke-width="0.775758"/>
<path d="M48.5327 55.6484C51.8977 55.6484 54.6256 52.9205 54.6256 49.5554C54.6256 46.1903 51.8977 43.4624 48.5327 43.4624C45.1676 43.4624 42.4397 46.1903 42.4397 49.5554C42.4397 52.9205 45.1676 55.6484 48.5327 55.6484Z" fill="#36413E"/>
<path d="M96.6268 66.9128C106.348 66.9128 114.229 59.0321 114.229 49.3108C114.229 39.5895 106.348 31.7089 96.6268 31.7089C86.9055 31.7089 79.0248 39.5895 79.0248 49.3108C79.0248 59.0321 86.9055 66.9128 96.6268 66.9128Z" fill="#7B9E89" stroke="#36413E" stroke-width="1.55152"/>
<path d="M97.3428 61.4969C104.073 61.4969 109.529 56.041 109.529 49.3109C109.529 42.5807 104.073 37.1249 97.3428 37.1249C90.6127 37.1249 85.1569 42.5807 85.1569 49.3109C85.1569 56.041 90.6127 61.4969 97.3428 61.4969Z" fill="#7B9E89" stroke="#36413E" stroke-width="0.775758"/>
<path d="M96.6271 55.4041C99.9922 55.4041 102.72 52.6762 102.72 49.3111C102.72 45.9461 99.9922 43.2181 96.6271 43.2181C93.262 43.2181 90.5341 45.9461 90.5341 49.3111C90.5341 52.6762 93.262 55.4041 96.6271 55.4041Z" fill="#36413E"/>
<path d="M72.5706 119.315C93.5832 119.315 110.617 102.281 110.617 81.2681C110.617 60.2555 93.5832 43.2214 72.5706 43.2214C51.5581 43.2214 34.524 60.2555 34.524 81.2681C34.524 102.281 51.5581 119.315 72.5706 119.315Z" fill="#C7EF00" stroke="#36413E" stroke-width="1.55152"/>
<path d="M88.3881 62.5657H56.8625C43.6063 62.5657 32.86 73.3119 32.86 86.5681C32.86 99.8243 43.6063 110.571 56.8625 110.571H88.3881C101.644 110.571 112.391 99.8243 112.391 86.5681C112.391 73.3119 101.644 62.5657 88.3881 62.5657Z" fill="#7B9E89" stroke="#36413E" stroke-width="1.55152" stroke-linejoin="round"/>
</svg>
