<svg width="733" height="772" viewBox="0 0 733 772" fill="none" xmlns="http://www.w3.org/2000/svg">
<path d="M732.6 772L623.982 753.611C516.381 735.223 297.619 698.553 298.382 661.561C297.619 624.945 516.381 588.114 569.8 551.658C623.219 514.667 516.381 477.675 434.218 441.219C353.581 404.389 297.619 367.772 325.6 330.781C353.581 294.111 460.419 257.333 474.918 220.342C488.4 183.833 407 146.894 352.818 110.439C297.619 73.5008 272.181 36.9917 257.682 18.2278L244.2 0H0V18.3886C0 36.7772 0 73.4472 0 110.439C0 147.055 0 183.886 0 220.342C0 257.333 0 294.325 0 330.781C0 367.611 0 404.228 0 441.219C0 477.889 0 514.667 0 551.658C0 588.167 0 625.106 0 661.561C0 698.499 0 735.008 0 753.772V772H732.6Z" fill="#FA7E61"/>
</svg>
